
        <svg xmlns="http://www.w3.org/2000/svg" xmlns:xlink="http://www.w3.org/1999/xlink" version="1.1" width="3162.3083859332733" 
        height="837.6285988813696" viewBox="0 0 3162.3083859332733 837.6285988813696">
			
			<g transform="scale(8.115419296663662) translate(10, 10)">
				<defs id="SvgjsDefs1078"></defs><g id="SvgjsG1079" featureKey="HdFLvg-0" transform="matrix(1.1887779621578394,0,0,1.1887779621578394,-17.83166943236759,-17.83166603124656)" fill="#be87dd"><g xmlns="http://www.w3.org/2000/svg"><path d="M64.3,35.8l1.1,1.1l10.6-10.6l-1.1-1.1c-5.7-5.7-13.2-9.3-21.1-10.2L52.2,15l-1.6,14.8l1.5,0.2   C56.7,30.4,61,32.5,64.3,35.8z M54.9,18.3c6.2,1,12.1,3.8,16.8,8.1l-6.3,6.3c-3.2-2.9-7.2-4.8-11.4-5.6L54.9,18.3z"></path><path d="M81.8,35.3l-0.6-1.4l-13.6,6.3l0.6,1.4c1.2,2.7,1.8,5.5,1.8,8.4c0,11.1-9.1,20.2-20.2,20.2c-5.3,0-10.3-2-14.1-5.8l-1.1-1   L24.2,73.8l1.1,1.1C31.9,81.4,40.7,85,50,85C69.3,85,85.1,69.3,85.1,50C85.1,44.9,84,39.9,81.8,35.3z M50,82   c-8,0-15.6-2.9-21.5-8.3l6.2-6.2c4.2,3.6,9.5,5.6,15.1,5.6c12.8,0,23.2-10.4,23.2-23.2c0-2.9-0.5-5.6-1.5-8.3l8.2-3.8   c1.6,3.8,2.4,7.9,2.4,12.1C82.1,67.7,67.7,82,50,82z"></path><path d="M31.6,58.6c-1.3-2.7-1.9-5.6-1.9-8.6c0-3.1,0.7-6,2-8.7c0,0,0,0,0,0c2.6-5.4,7.4-9.5,13.5-10.9l1.5-0.4l-3.5-14.4l-1.5,0.4   C26.3,19.7,15.6,33,15,48.6c0,0,0,0,0,0c0,0,0,0,0,0c0,0.4,0,0.9,0,1.3c0,2.3,0.2,4.6,0.7,6.8c0,0,0,0.1,0,0.1   c0.5,2.7,1.4,5.3,2.6,7.9l0.6,1.4l13.4-6.2L31.6,58.6z M22,34.3h10.7c-1.4,1.5-2.5,3.1-3.5,4.9h-9.5C20.4,37.5,21.2,35.8,22,34.3z    M28,42.2c-0.6,1.6-0.9,3.2-1.2,4.9h-8.8c0.1-1.7,0.4-3.3,0.8-4.9H28z M17.9,50.1h8.7c0,1.7,0.2,3.3,0.6,4.9h-8.9   C18.1,53.4,17.9,51.8,17.9,50.1z M41.9,23.4h-9.8c2.6-1.8,5.6-3.2,8.8-4.1L41.9,23.4z M28.3,26.3c0.1,0,0.2,0,0.3,0h14l0.4,1.5   c-2.5,0.8-4.8,2-6.9,3.5H23.9C25.2,29.5,26.7,27.8,28.3,26.3z M20.3,62.1c-0.5-1.3-1-2.7-1.4-4.1h9.2c0,0.1,0.1,0.3,0.1,0.4   L20.3,62.1z"></path></g></g><g id="SvgjsG1080" featureKey="VomJeJ-0" transform="matrix(3.7558681410093913,0,0,3.7558681410093913,97.29108363144384,-8.361500840003409)" fill="#be87dd"><path d="M10.36 19.12 q-0.64 0.52 -1.68 0.76 t-2.3 0.24 q-0.62 0 -1.79 -0.02 t-2.93 -0.06 l-0.14 -0.14 l0 -13.46 l0.14 -0.14 q1.16 -0.04 2.41 -0.06 t2.63 -0.02 q1.7 0 2.84 0.54 t1.82 1.48 t0.96 2.21 t0.28 2.73 q0 2 -0.46 3.46 t-1.78 2.48 z M6.68 17.62 q2.64 0 2.64 -4.44 q0 -4.46 -2.64 -4.46 l-1.13 0 t-0.85 -0.02 l0 8.94 q0.36 -0.02 0.85 -0.02 l1.13 0 z M21.74 10.9 q1.44 1.44 1.44 4.12 q0 1.2 -0.31 2.18 t-0.9 1.67 t-1.45 1.06 t-1.98 0.37 t-1.97 -0.38 t-1.44 -1.07 t-0.89 -1.67 t-0.3 -2.16 q0 -1.2 0.3 -2.17 t0.88 -1.67 t1.44 -1.08 t1.98 -0.38 q1.98 0 3.2 1.18 z M18.56 12.06 q-0.44 0 -0.71 0.21 t-0.43 0.57 t-0.22 0.83 t-0.06 1.01 q0 0.84 0.05 1.45 t0.2 1.02 t0.42 0.61 t0.71 0.2 q0.88 0 1.16 -0.77 t0.28 -2.19 q0 -1.44 -0.28 -2.19 t-1.12 -0.75 z M32.18 10.9 q1.44 1.44 1.44 4.12 q0 1.2 -0.31 2.18 t-0.9 1.67 t-1.45 1.06 t-1.98 0.37 t-1.97 -0.38 t-1.44 -1.07 t-0.89 -1.67 t-0.3 -2.16 q0 -1.2 0.3 -2.17 t0.88 -1.67 t1.44 -1.08 t1.98 -0.38 q1.98 0 3.2 1.18 z M29 12.06 q-0.44 0 -0.71 0.21 t-0.43 0.57 t-0.22 0.83 t-0.06 1.01 q0 0.84 0.05 1.45 t0.2 1.02 t0.42 0.61 t0.71 0.2 q0.88 0 1.16 -0.77 t0.28 -2.19 q0 -1.44 -0.28 -2.19 t-1.12 -0.75 z M34.62 19.32 q0.02 -0.52 0.27 -1.14 t0.59 -0.98 q1.6 0.84 2.78 0.84 q0.56 0 0.86 -0.19 t0.3 -0.51 q0 -0.6 -0.92 -0.9 l-1.1 -0.42 q-2.5 -0.92 -2.5 -3 q0 -1.52 1.05 -2.41 t2.83 -0.89 q0.88 0 1.94 0.25 t1.74 0.59 q0.04 0.56 -0.22 1.23 t-0.64 0.95 q-1.68 -0.76 -2.8 -0.76 q-0.4 0 -0.61 0.18 t-0.21 0.46 q0 0.48 0.76 0.76 l1.24 0.44 q2.66 0.94 2.66 3.22 q0 1.5 -1.1 2.38 t-3.14 0.88 t-3.78 -0.98 z M50.12 10 q0.12 0.56 0.12 1.12 t-0.12 1.1 l-2.38 -0.04 l0 4.6 q0 0.94 0.88 0.94 l1.12 0 q0.26 0.72 0.26 1.32 t-0.08 0.86 q-1.48 0.2 -2.72 0.2 q-2.52 0 -2.52 -2.78 l0 -5.12 l-1.56 0.02 q-0.14 -0.5 -0.14 -1.09 t0.14 -1.13 l1.56 0.04 l0 -1.16 q0 -1.02 0.39 -1.45 t1.31 -0.43 l1.22 0 l0.14 0.14 l0 2.9 z M59.82 17.14 q-0.54 0 -0.8 -0.02 l-0.86 2.9 q-0.48 0.12 -1.34 0.12 q-0.96 0 -1.56 -0.22 l-0.1 -0.16 l4.4 -13.42 q0.78 -0.12 1.82 -0.12 q1.18 0 1.88 0.14 l4.32 13.44 q-0.7 0.38 -1.58 0.38 q-1.04 0 -1.46 -0.36 t-0.72 -1.38 l-0.38 -1.32 q-0.26 0.02 -0.78 0.02 l-2.84 0 z M59.76 14.62 l0.8 -0.02 l1.46 0 q0.1 0 0.35 0.01 t0.37 0.01 l-0.34 -1.24 q-0.48 -1.68 -1.1 -4.12 l-0.12 0 q-0.16 0.86 -0.96 3.82 z M69.3 20 l0 -13.66 q0.62 -0.12 1.6 -0.12 t1.62 0.12 l0 13.66 q-0.64 0.12 -1.62 0.12 t-1.6 -0.12 z"></path></g>
			</g>
		</svg>
	