<svg width="1200" height="1200" xmlns="http://www.w3.org/2000/svg" xmlns:xlink="http://www.w3.org/1999/xlink" version="1.1"><g transform="scale(15.4065623895656) translate(-11.105555640326607, -11.055553542243114)">                        <g fill="#be87dd"><g xmlns="http://www.w3.org/2000/svg"><path d="M64.3,35.8l1.1,1.1l10.6-10.6l-1.1-1.1c-5.7-5.7-13.2-9.3-21.1-10.2L52.2,15l-1.6,14.8l1.5,0.2   C56.7,30.4,61,32.5,64.3,35.8z M54.9,18.3c6.2,1,12.1,3.8,16.8,8.1l-6.3,6.3c-3.2-2.9-7.2-4.8-11.4-5.6L54.9,18.3z"/><path d="M81.8,35.3l-0.6-1.4l-13.6,6.3l0.6,1.4c1.2,2.7,1.8,5.5,1.8,8.4c0,11.1-9.1,20.2-20.2,20.2c-5.3,0-10.3-2-14.1-5.8l-1.1-1   L24.2,73.8l1.1,1.1C31.9,81.4,40.7,85,50,85C69.3,85,85.1,69.3,85.1,50C85.1,44.9,84,39.9,81.8,35.3z M50,82   c-8,0-15.6-2.9-21.5-8.3l6.2-6.2c4.2,3.6,9.5,5.6,15.1,5.6c12.8,0,23.2-10.4,23.2-23.2c0-2.9-0.5-5.6-1.5-8.3l8.2-3.8   c1.6,3.8,2.4,7.9,2.4,12.1C82.1,67.7,67.7,82,50,82z"/><path d="M31.6,58.6c-1.3-2.7-1.9-5.6-1.9-8.6c0-3.1,0.7-6,2-8.7c0,0,0,0,0,0c2.6-5.4,7.4-9.5,13.5-10.9l1.5-0.4l-3.5-14.4l-1.5,0.4   C26.3,19.7,15.6,33,15,48.6c0,0,0,0,0,0c0,0,0,0,0,0c0,0.4,0,0.9,0,1.3c0,2.3,0.2,4.6,0.7,6.8c0,0,0,0.1,0,0.1   c0.5,2.7,1.4,5.3,2.6,7.9l0.6,1.4l13.4-6.2L31.6,58.6z M22,34.3h10.7c-1.4,1.5-2.5,3.1-3.5,4.9h-9.5C20.4,37.5,21.2,35.8,22,34.3z    M28,42.2c-0.6,1.6-0.9,3.2-1.2,4.9h-8.8c0.1-1.7,0.4-3.3,0.8-4.9H28z M17.9,50.1h8.7c0,1.7,0.2,3.3,0.6,4.9h-8.9   C18.1,53.4,17.9,51.8,17.9,50.1z M41.9,23.4h-9.8c2.6-1.8,5.6-3.2,8.8-4.1L41.9,23.4z M28.3,26.3c0.1,0,0.2,0,0.3,0h14l0.4,1.5   c-2.5,0.8-4.8,2-6.9,3.5H23.9C25.2,29.5,26.7,27.8,28.3,26.3z M20.3,62.1c-0.5-1.3-1-2.7-1.4-4.1h9.2c0,0.1,0.1,0.3,0.1,0.4   L20.3,62.1z"/></g></g>        </g></svg>